<svg width="985" height="1183" viewBox="0 0 985 1183" fill="none" xmlns="http://www.w3.org/2000/svg">
<g opacity="0.3" clip-path="url(#clip0_187_1578)">
<path d="M179.434 174.163C110.533 116.888 18.4372 78.7044 -83.8911 67.0156L-190.312 888.346C-87.6919 838.766 77.5926 805.648 197.365 889.028C102.249 794.544 21.7507 686.13 30.5217 524.046C38.1232 383.684 116.77 287.154 179.531 174.163H179.434Z" fill="#277FDD"/>
<path d="M160.039 945.134C2.55124 832.727 -217.893 953.024 -259.604 982.635L-156.983 190.235C-182.614 185.949 -209.609 182.54 -238.261 180.104L-367 1183C-367 1183 -354.623 1171.99 -330.747 1154.56C-82.3325 967.342 160.039 945.231 160.039 945.231V945.134Z" fill="#277FDD"/>
<path d="M267.049 435.406C267.049 435.406 248.728 517.909 285.176 608.303C312.463 676 368.5 758.698 425.414 766.198C459.036 770.679 487.104 734.931 494.803 724.119C623.346 542.456 505.815 358.455 505.815 358.455C472.973 407.743 423.563 463.265 376.784 410.373C330.298 357.773 394.034 297.576 392.767 205.138C391.402 106.368 307.103 -0.0974121 307.103 -0.0974121C284.201 197.345 102.837 340.922 92.409 534.079C84.4176 682.331 157.899 761.036 242.198 838.961C218.516 790.16 140.455 600.705 267.147 435.309L267.049 435.406Z" fill="#277FDD"/>
<path d="M465.174 863.507C464.102 864.287 463.127 865.066 462.153 865.942C592.646 805.94 738.829 855.52 808.412 888.443L701.893 67.0156C603.073 78.2174 517.605 111.92 449.971 165.688C466.636 299.914 403.874 322.902 427.069 349.007C448.412 372.969 521.795 236.892 521.795 236.892C521.795 236.892 611.162 363.326 618.861 521.806C624.514 636.453 592.353 764.153 465.076 863.41L465.174 863.507Z" fill="#fef2e0 "/>
<path d="M457.961 945.134C615.449 832.727 835.893 953.023 877.604 982.635L774.886 190.137C800.517 185.851 827.512 182.442 856.164 180.007L985 1182.81C985 1182.81 972.623 1171.8 948.747 1154.36C700.333 967.147 457.961 945.036 457.961 945.036V945.134Z" fill="#277FDD"/>
</g>
<defs>
<clipPath id="clip0_187_1578">
<rect width="1352" height="1183" fill="white" transform="translate(-367)"/>
</clipPath>
</defs>
</svg>
