<svg width="16452" height="13870" viewBox="0 0 16452 13870" fill="none" xmlns="http://www.w3.org/2000/svg">
<g clip-path="url(#clip0_22_12)">
<rect width="16451.8" height="13870" fill="#FEF2E0"/>
<mask id="mask0_22_12" style="mask-type:luminance" maskUnits="userSpaceOnUse" x="0" y="0" width="16452" height="13870">
<path d="M16451.8 0H0V13870H16451.8V0Z" fill="white"/>
</mask>
<g mask="url(#mask0_22_12)">
<g opacity="0.3">
<path d="M6649.3 2041.96C5810.87 1370.44 4690.2 922.763 3445.02 785.719L2150.03 10415.3C3398.77 9834.05 5410.04 9445.76 6867.49 10423.3C5710.07 9315.57 4730.52 8044.48 4837.25 6144.14C4929.75 4498.48 5886.77 3366.72 6650.48 2041.96H6649.3Z" fill="#FEF2E0"/>
<path d="M6413.29 11081.2C4496.89 9763.25 1814.41 11173.7 1306.85 11520.8L2555.6 2230.4C2243.71 2180.15 1915.22 2140.18 1566.56 2111.62L-0.000244141 13870C-0.000244141 13870 150.61 13740.9 441.145 13536.6C3463.98 11341.5 6413.29 11082.3 6413.29 11082.3V11081.2Z" fill="#FEF2E0"/>
<path d="M7715.44 5104.89C7715.44 5104.89 7492.5 6072.19 7936.02 7132.01C8268.06 7925.71 8949.95 8895.3 9642.51 8983.23C10051.6 9035.77 10393.2 8616.65 10486.9 8489.88C12051.1 6359.99 10620.9 4202.68 10620.9 4202.68C10221.2 4780.55 9619.99 5431.52 9050.76 4811.39C8485.09 4194.68 9260.66 3488.91 9245.25 2405.13C9228.64 1247.1 8202.84 -1.14258 8202.84 -1.14258C7924.16 2313.76 5717.22 3997.12 5590.33 6261.77C5493.09 7999.94 6387.25 8922.71 7413.04 9836.34C7124.87 9264.18 6174.98 7042.92 7716.64 5103.75L7715.44 5104.89Z" fill="#FEF2E0"/>
<path d="M10126.3 10124.1C10113.3 10133.3 10101.4 10142.4 10089.6 10152.7C11677.5 9449.19 13456.3 10030.5 14303 10416.5L13006.9 785.719C11804.4 917.053 10764.3 1312.2 9941.33 1942.6C10144.1 3516.32 9380.4 3785.84 9662.65 4091.91C9922.36 4372.85 10815.3 2777.42 10815.3 2777.42C10815.3 2777.42 11902.8 4259.79 11996.5 6117.88C12065.3 7462.05 11673.9 8959.26 10125.1 10123L10126.3 10124.1Z" fill="#FEF2E0"/>
<path d="M10038.6 11081.2C11955 9763.25 14637.4 11173.7 15145 11520.8L13895.1 2229.25C14207 2179 14535.5 2139.03 14884.1 2110.48L16451.9 13867.8C16451.9 13867.8 16301.2 13738.7 16010.7 13534.2C12987.9 11339.2 10038.6 11080 10038.6 11080V11081.2Z" fill="#FEF2E0"/>
</g>
</g>
</g>
<rect x="0.5" y="0.5" width="16450.8" height="13869" stroke="black"/>
<defs>
<clipPath id="clip0_22_12">
<rect width="16451.8" height="13870" fill="white"/>
</clipPath>
</defs>
</svg>
