<svg width="11100" height="14928" viewBox="0 0 11100 14928" fill="none" xmlns="http://www.w3.org/2000/svg">
<g filter="url(#filter0_d_23_32)">
<g clip-path="url(#clip0_23_32)">
<mask id="mask0_23_32" style="mask-type:luminance" maskUnits="userSpaceOnUse" x="-4129" y="0" width="15226" height="14920">
<path d="M11096 0H-4128.76V14920H11096V0Z" fill="white"/>
</mask>
<g mask="url(#mask0_23_32)">
<g opacity="0.3">
<path d="M2024.59 2196.54C1248.7 1474.19 211.62 992.62 -940.69 845.201L-2139.09 11203.8C-983.491 10578.5 877.764 10160.8 2226.51 11212.4C1155.42 10020.8 248.933 8653.47 347.702 6609.27C433.302 4839.02 1318.94 3621.59 2025.68 2196.54H2024.59Z" fill="#FFE6C1"/>
<path d="M1806.19 11920C32.7293 10502.4 -2449.67 12019.5 -2919.38 12393L-1763.77 2399.24C-2052.4 2345.19 -2356.39 2302.2 -2679.04 2271.47L-4128.76 14920C-4128.76 14920 -3989.38 14781.1 -3720.51 14561.3C-923.139 12200.1 1806.19 11921.3 1806.19 11921.3V11920Z" fill="#FFE6C1"/>
<path d="M3011.22 5491.34C3011.22 5491.34 2804.9 6531.87 3215.34 7671.92C3522.62 8525.71 4153.65 9568.7 4794.55 9663.29C5173.16 9719.81 5489.24 9268.95 5575.93 9132.59C7023.45 6841.46 5699.94 4520.84 5699.94 4520.84C5330.11 5142.46 4773.71 5842.7 4246.93 5175.63C3723.46 4512.23 4441.18 3753.03 4426.92 2587.2C4411.54 1341.51 3462.26 -1.22852 3462.26 -1.22852C3204.36 2488.92 1162.04 4299.71 1044.61 6735.81C954.619 8605.56 1782.09 9598.19 2731.37 10581C2464.69 9965.5 1585.65 7576.09 3012.32 5490.12L3011.22 5491.34Z" fill="#FFE6C1"/>
<path d="M5242.28 10890.6C5230.21 10900.4 5219.23 10910.2 5208.26 10921.3C6677.73 10164.5 8323.89 10789.8 9107.46 11205L7907.96 845.201C6795.15 986.478 5832.7 1411.54 5071.08 2089.66C5258.75 3782.52 4551.99 4072.44 4813.19 4401.68C5053.53 4703.89 5879.89 2987.68 5879.89 2987.68C5879.89 2987.68 6886.24 4582.27 6972.94 6581.02C7036.6 8026.95 6674.43 9637.5 5241.18 10889.3L5242.28 10890.6Z" fill="#FFE6C1"/>
<path d="M5161.06 11920C6934.52 10502.4 9416.92 12019.5 9886.62 12393L8729.92 2398.01C9018.55 2343.95 9322.54 2300.96 9645.19 2270.25L11096 14917.6C11096 14917.6 10956.6 14778.7 10687.8 14558.8C7890.39 12197.7 5161.06 11918.8 5161.06 11918.8V11920Z" fill="#FFE6C1"/>
</g>
</g>
</g>
<rect x="4.5" y="0.5" width="11091" height="14919" stroke="#FEF2E0" shape-rendering="crispEdges"/>
</g>
<defs>
<filter id="filter0_d_23_32" x="0" y="0" width="11100" height="14928" filterUnits="userSpaceOnUse" color-interpolation-filters="sRGB">
<feFlood flood-opacity="0" result="BackgroundImageFix"/>
<feColorMatrix in="SourceAlpha" type="matrix" values="0 0 0 0 0 0 0 0 0 0 0 0 0 0 0 0 0 0 127 0" result="hardAlpha"/>
<feOffset dy="4"/>
<feGaussianBlur stdDeviation="2"/>
<feComposite in2="hardAlpha" operator="out"/>
<feColorMatrix type="matrix" values="0 0 0 0 0 0 0 0 0 0 0 0 0 0 0 0 0 0 0.25 0"/>
<feBlend mode="normal" in2="BackgroundImageFix" result="effect1_dropShadow_23_32"/>
<feBlend mode="normal" in="SourceGraphic" in2="effect1_dropShadow_23_32" result="shape"/>
</filter>
<clipPath id="clip0_23_32">
<rect x="4" width="11092" height="14920" fill="white"/>
</clipPath>
</defs>
</svg>
