<svg width="306" height="91" viewBox="0 0 306 91" fill="none" xmlns="http://www.w3.org/2000/svg">
<g clip-path="url(#clip0_187_1667)">
<path d="M125.43 79.6007C125.43 79.3844 125.576 79.2383 125.794 79.2383H128.532C128.749 79.2383 128.896 79.3844 128.896 79.6007V86.8154C128.896 87.0317 128.749 87.1777 128.532 87.1777H125.794C125.576 87.1777 125.43 87.0317 125.43 86.8154V79.6007ZM135.101 86.8154V79.168C135.101 77.0209 134.715 76.0096 132.292 76.0096H125.821C125.604 76.0096 125.484 75.8906 125.484 75.6743V73.2838C125.484 73.0675 125.604 72.9485 125.821 72.9485H133.77C136.796 72.9485 138.594 74.6142 138.594 77.5293V86.8154C138.594 87.0317 138.426 87.1777 138.208 87.1777H135.47C135.253 87.1777 135.106 87.0317 135.106 86.8154H135.101Z" fill="white"/>
<path d="M150.274 86.8139V79.1666C150.274 77.0195 149.888 76.0081 147.465 76.0081H142.303C142.086 76.0081 141.961 75.8891 141.961 75.6728V73.2823C141.961 73.066 142.08 72.947 142.303 72.947H148.943C151.974 72.947 153.767 74.6128 153.767 77.5278V86.8139C153.767 87.0302 153.599 87.1762 153.381 87.1762H150.643C150.426 87.1762 150.279 87.0302 150.279 86.8139H150.274Z" fill="white"/>
<path d="M159.077 86.8139V76.7815C159.077 76.2029 158.86 76.0082 158.327 76.0082H157.262C157.045 76.0082 156.898 75.8621 156.898 75.6458V73.304C156.898 73.0877 157.045 72.9417 157.262 72.9417H159.979C161.576 72.9417 162.549 73.807 162.549 75.4024V86.8139C162.549 87.0303 162.402 87.1763 162.185 87.1763H159.447C159.229 87.1763 159.083 87.0303 159.083 86.8139H159.077Z" fill="white"/>
<path d="M177.375 86.8139V79.1666C177.375 77.0195 176.962 76.0081 174.56 76.0081H172.648V83.7528C172.648 86.4569 171.192 87.3439 168.845 87.3439C167.899 87.3439 166.617 87.1979 166.617 86.5489V84.6668C166.617 84.3748 166.786 84.1584 167.079 84.1855C167.367 84.2341 167.829 84.2828 168.095 84.2828C168.752 84.2828 169.187 83.9475 169.187 83.1471V76.0081H167.443C167.226 76.0081 167.106 75.8891 167.106 75.6728V73.2823C167.106 73.066 167.226 72.947 167.443 72.947H176.022C179.048 72.947 180.847 74.6128 180.847 77.5278V86.8139C180.847 87.0302 180.7 87.1763 180.483 87.1763H177.744C177.527 87.1763 177.38 87.0302 177.38 86.8139H177.375Z" fill="white"/>
<path d="M197.891 86.8464V79.199C197.891 77.0519 197.505 76.0406 195.082 76.0406H189.92C189.703 76.0406 189.578 75.9216 189.578 75.7053V73.3148C189.578 73.0985 189.698 72.9795 189.92 72.9795H196.56C199.591 72.9795 201.384 74.6452 201.384 77.5603V86.8464C201.384 87.0627 201.216 87.2087 200.999 87.2087H198.26C198.043 87.2087 197.896 87.0627 197.896 86.8464H197.891Z" fill="white"/>
<path d="M207.304 86.8464V76.814C207.304 76.2353 207.086 76.0406 206.554 76.0406H205.489C205.272 76.0406 205.125 75.8946 205.125 75.6783V73.3365C205.125 73.1202 205.272 72.9741 205.489 72.9741H208.206C209.803 72.9741 210.775 73.8395 210.775 75.4349V86.8464C210.775 87.0627 210.629 87.2088 210.411 87.2088H207.673C207.456 87.2088 207.309 87.0627 207.309 86.8464H207.304Z" fill="white"/>
<path d="M224.417 86.9654L219.956 80.4268C218.745 81.4381 218.359 82.7902 218.359 84.2883C218.359 85.3754 218.576 86.0244 218.821 86.8194C218.891 87.0628 218.701 87.2034 218.479 87.2034H215.838C215.621 87.2034 215.523 87.0844 215.452 86.841C215.159 85.8026 214.969 85.105 214.969 83.8719C214.969 81.5085 215.697 79.2424 218.142 77.7443L215.159 73.4014C215.012 73.1851 215.11 72.9688 215.376 72.9688H218.359C218.555 72.9688 218.674 73.0391 218.794 73.2067L222.934 79.2856C224.292 78.3716 224.727 77.1386 224.727 75.6945C224.727 74.7319 224.531 74.1532 224.292 73.3527C224.221 73.1094 224.412 72.9688 224.634 72.9688H227.275C227.492 72.9688 227.59 73.0877 227.661 73.3311C227.905 74.1261 228.122 74.9969 228.122 76.1759C228.122 78.4203 227.345 80.5187 224.754 81.9411L228.052 86.7653C228.198 86.9816 228.101 87.198 227.834 87.198H224.852C224.661 87.198 224.537 87.1277 224.417 86.9546V86.9654Z" fill="white"/>
<path d="M238.188 79.5992C238.188 79.3829 238.334 79.2369 238.552 79.2369H241.29C241.507 79.2369 241.654 79.3829 241.654 79.5992V86.8139C241.654 87.0302 241.507 87.1762 241.29 87.1762H238.552C238.334 87.1762 238.188 87.0302 238.188 86.8139V79.5992ZM247.859 86.8139V79.1666C247.859 77.0195 247.473 76.0081 245.05 76.0081H238.579C238.361 76.0081 238.242 75.8891 238.242 75.6728V73.2823C238.242 73.066 238.361 72.947 238.579 72.947H246.527C249.554 72.947 251.352 74.6128 251.352 77.5278V86.8139C251.352 87.0302 251.184 87.1762 250.966 87.1762H248.228C248.011 87.1762 247.864 87.0302 247.864 86.8139H247.859Z" fill="white"/>
<path d="M254.938 86.8139V84.4721C254.938 84.2558 255.084 84.1097 255.302 84.1097H263.104C263.033 84.0124 263.006 83.8447 263.006 83.6284V79.1666C263.006 77.0195 262.62 76.0081 260.197 76.0081H255.785C255.568 76.0081 255.448 75.8891 255.448 75.6728V73.2823C255.448 73.066 255.568 72.947 255.785 72.947H261.675C264.701 72.947 266.499 74.6128 266.499 77.5278V83.6284C266.499 83.9691 266.668 84.1097 266.961 84.1097H267.445C267.662 84.1097 267.809 84.2558 267.809 84.4721V86.8139C267.809 87.0302 267.662 87.1762 267.445 87.1762H255.307C255.09 87.1762 254.943 87.0302 254.943 86.8139H254.938Z" fill="white"/>
<path d="M272.807 81.8924V76.7815C272.807 76.2029 272.59 76.0082 272.058 76.0082H270.966C270.748 76.0082 270.602 75.8621 270.602 75.6458V73.304C270.602 73.0877 270.748 72.9417 270.966 72.9417H273.731C275.328 72.9417 276.203 73.807 276.203 75.4024V81.8924C276.203 82.1087 276.056 82.2547 275.839 82.2547H273.171C272.954 82.2547 272.807 82.1087 272.807 81.8924Z" fill="white"/>
<path d="M280.904 80.3943V73.304C280.904 73.0877 281.051 72.9417 281.268 72.9417H284.006C284.224 72.9417 284.37 73.0877 284.37 73.304V77.9335H285.098C286.505 77.9335 286.94 77.2791 286.94 75.8621V73.2824C286.94 73.066 287.06 72.9471 287.277 72.9471H289.966C290.184 72.9471 290.309 73.066 290.309 73.2824V76.4895C290.309 79.291 288.467 80.881 285.701 80.881H284.441C284.778 83.2174 286.087 84.0665 288.581 84.0665C291.515 84.0665 292.775 82.9091 292.775 79.556V73.3094C292.775 73.0931 292.922 72.9471 293.139 72.9471H295.878C296.095 72.9471 296.242 73.0931 296.242 73.3094V80.3997C296.242 85.1536 293.166 87.371 288.581 87.371C283.995 87.371 280.898 85.1536 280.898 80.3997L280.904 80.3943Z" fill="white"/>
<path d="M302.188 81.8924V76.7815C302.188 76.2029 301.971 76.0082 301.433 76.0082H300.341C300.123 76.0082 299.977 75.8621 299.977 75.6458V73.304C299.977 73.0877 300.123 72.9417 300.341 72.9417H303.106C304.703 72.9417 305.578 73.807 305.578 75.4024V81.8924C305.578 82.1087 305.431 82.2547 305.214 82.2547H302.546C302.329 82.2547 302.182 82.1087 302.182 81.8924H302.188Z" fill="white"/>
<path d="M125.474 11.26L135.33 21.0977L145.18 11.26V31.1517H140.725V21.5087L135.324 26.8846L129.924 21.5087V31.1517H125.469V11.26H125.474Z" fill="white"/>
<path d="M158.385 11.26L168.126 31.1571H163.448L162.03 28.1069H154.739L153.321 31.1571H148.648L158.39 11.26H158.385ZM160.248 24.5049L158.385 20.4054L156.521 24.5049H160.248Z" fill="white"/>
<path d="M174.815 20.876V31.1571H170.359V11.26L182.828 21.7629V11.4817H187.284V31.3735L174.815 20.876Z" fill="white"/>
<path d="M192.875 11.4817H197.33V19.1831H205.235V11.4817H209.691V31.1517H205.235V23.4503H197.33V31.1517H192.875V11.4817Z" fill="white"/>
<path d="M223.377 11.26L233.118 31.1571H228.44L227.022 28.1069H219.731L218.313 31.1571H213.641L223.382 11.26H223.377ZM225.24 24.5049L223.377 20.4054L221.513 24.5049H225.24Z" fill="white"/>
<path d="M237.803 15.857H233.07V11.4817H247.017V15.857H242.258V31.1517H237.803V15.857Z" fill="white"/>
<path d="M256.303 15.857H251.57V11.4817H265.517V15.857H260.758V31.1517H256.303V15.857Z" fill="white"/>
<path d="M275.65 11.26L285.392 31.1571H280.714L279.296 28.1069H272.005L270.587 31.1571H265.914L275.656 11.26H275.65ZM277.514 24.5049L275.65 20.4054L273.787 24.5049H277.514Z" fill="white"/>
<path d="M293.525 20.876V31.1571H289.07V11.26L301.539 21.7629V11.4817H305.995V31.3735L293.525 20.876Z" fill="white"/>
<path d="M125.43 40.1079H132.362C137.931 40.1079 142.408 44.5103 142.408 49.9456C142.408 55.3809 137.926 59.7833 132.362 59.7833H125.43V40.1133V40.1079ZM132.362 55.7325C135.671 55.7325 137.931 53.0986 137.931 49.9402C137.931 46.7817 135.677 44.1479 132.362 44.1479H129.885V55.7271H132.362V55.7325Z" fill="white"/>
<path d="M152.346 39.8862L162.087 59.7834H157.409L155.991 56.7331H148.7L147.282 59.7834H142.609L152.351 39.8862H152.346ZM154.209 53.1311L152.346 49.0317L150.482 53.1311H154.209Z" fill="white"/>
<path d="M165.73 51.5248L158.406 40.1079H163.611L167.952 47.09L172.293 40.1079H177.498L170.18 51.5248V59.7833H165.725V51.5248H165.73Z" fill="white"/>
<path d="M203.969 49.9457C203.969 44.4022 208.505 39.8862 214.074 39.8862C217.47 39.8862 220.502 41.579 222.344 44.1534L218.975 46.8954C217.97 45.2891 216.193 44.1534 214.074 44.1534C210.874 44.1534 208.451 46.7872 208.451 49.9457C208.451 53.1041 210.874 55.7379 214.074 55.7379C216.188 55.7379 217.97 54.6022 218.975 52.9959L222.344 55.7379C220.507 58.3177 217.47 60.0051 214.074 60.0051C208.505 60.0051 203.969 55.4892 203.969 49.9457Z" fill="white"/>
<path d="M226.016 40.1079H230.471V47.8093H238.376V40.1079H242.831V59.7779H238.376V52.0765H230.471V59.7779H226.016V40.1079Z" fill="white"/>
<path d="M246.5 49.9457C246.5 44.4022 251.037 39.8862 256.606 39.8862C262.175 39.8862 266.711 44.4022 266.711 49.9457C266.711 55.4892 262.175 60.0051 256.606 60.0051C251.037 60.0051 246.5 55.4892 246.5 49.9457ZM262.224 49.9457C262.224 46.7872 259.8 44.1534 256.6 44.1534C253.4 44.1534 250.977 46.7872 250.977 49.9457C250.977 53.1041 253.4 55.7379 256.6 55.7379C259.8 55.7379 262.224 53.1041 262.224 49.9457Z" fill="white"/>
<path d="M269.992 49.9457C269.992 44.4022 274.529 39.8862 280.098 39.8862C285.667 39.8862 290.203 44.4022 290.203 49.9457C290.203 55.4892 285.667 60.0051 280.098 60.0051C274.529 60.0051 269.992 55.4892 269.992 49.9457ZM285.716 49.9457C285.716 46.7872 283.293 44.1534 280.092 44.1534C276.892 44.1534 274.469 46.7872 274.469 49.9457C274.469 53.1041 276.892 55.7379 280.092 55.7379C283.293 55.7379 285.716 53.1041 285.716 49.9457Z" fill="white"/>
<path d="M293.867 40.1079H298.322V55.3755H306.005V59.7779H293.867V40.1079Z" fill="white"/>
<path d="M195.588 59.8645C194.887 59.9943 194.148 60.0646 193.382 60.07C190.307 60.1024 186.96 59.2425 184.646 57.8309L184.461 57.7174L186.949 54.0776L187.112 54.1695C189.014 55.2512 191.356 55.8569 193.529 55.8353C193.947 55.8353 194.333 55.7974 194.686 55.7325C195.968 55.5 196.696 54.8996 196.745 54.0397C196.794 53.1149 196.376 52.6931 193.931 52.1793L191.519 51.6709C187.254 50.7731 185.254 48.8748 185.222 45.6893C185.189 42.9311 187.531 40.6434 191.046 39.9944C191.654 39.8808 192.285 39.8213 192.926 39.8159C195.637 39.7889 198.484 40.5298 200.733 41.8494L200.918 41.9576L198.587 45.6028L198.413 45.5054C196.686 44.5103 195.034 44.029 193.371 44.0398C192.937 44.0398 192.529 44.0776 192.165 44.1479C190.899 44.3805 190.182 44.97 190.193 45.7758C190.209 46.7007 190.916 47.1928 192.806 47.5876L195.458 48.1393C199.647 49.01 201.526 50.8272 201.564 54.0181C201.597 56.9007 199.255 59.1992 195.593 59.8699L195.588 59.8645Z" fill="white"/>
<path d="M64.4622 66.6681C64.3808 66.733 64.3047 66.7925 64.2286 66.852C65.1197 66.4464 66.0324 66.0949 66.9778 65.7974C76.5945 62.8174 86.5099 66.4085 91.2096 68.5935L82.9132 4.85132C75.209 5.72205 68.6729 8.26936 63.4028 12.4392C64.0765 20.1298 59.9636 23.0665 61.8815 25.5705C64.4622 28.9345 69.6292 17.4743 69.6292 17.4743C69.6292 17.4743 88.1018 48.3124 64.4622 66.6681Z" fill="white"/>
<path d="M41.7469 12.9097C36.3789 8.46406 29.6527 5.75991 21.6714 4.85132L13.375 68.5935C16.7979 67.0034 22.9971 64.6617 29.8266 64.6617C32.3693 64.6617 34.9989 64.9862 37.6122 65.792C39.7529 66.4572 41.7414 67.4091 43.5887 68.6422C36.1725 61.3085 29.9026 52.8932 30.5872 40.3189C31.1794 29.4266 36.8625 21.6711 41.7523 12.9043L41.7469 12.9097Z" fill="white"/>
<path d="M49.027 33.7964C49.027 33.7964 47.5981 40.1944 50.4397 47.2198C52.5694 52.4713 56.9323 58.8909 61.3657 59.475C63.9845 59.8212 66.174 57.0467 66.7717 56.2084C76.785 42.1144 67.6301 27.8311 67.6301 27.8311C67.6301 27.8311 62.2839 37.7499 57.6277 32.0279C54.2429 26.1653 58.9208 23.6018 58.8176 15.9328C58.7143 8.26384 52.1402 0.00537109 52.1402 0.00537109C50.3582 15.3271 36.2211 26.4682 35.4062 41.46C34.7813 52.9688 40.5079 59.0694 47.0765 65.1267C45.2293 61.3409 39.1496 46.6303 49.0216 33.8018L49.027 33.7964Z" fill="#F5A800"/>
<path d="M31.2406 74.9644C34.3157 74.0396 37.5973 73.2175 41.0691 72.5415C39.3903 71.3733 37.5756 70.4809 35.6251 69.8698C24.0417 66.2733 11.2955 73.7151 11.1705 73.7908L8.36704 75.4566L16.3646 13.948C14.3652 13.6181 12.2626 13.3531 10.035 13.1638L0 91C0 91 4.754 86.7978 13.4633 82.217C18.8476 79.2099 25.1935 76.2732 31.2406 74.9698V74.9644Z" fill="white"/>
<path d="M73.3496 74.9646C79.3967 76.2735 85.7426 79.2048 91.1214 82.2118C99.8362 86.7926 104.59 91.0002 104.59 91.0002L94.5497 13.1694C92.3221 13.3533 90.2195 13.6237 88.2201 13.9536L96.2231 75.4676L93.4142 73.7965C93.2892 73.7207 80.5377 66.2789 68.9596 69.8754C67.0091 70.4812 65.189 71.3735 63.5156 72.5471C66.9874 73.2178 70.269 74.0452 73.3496 74.9701V74.9646Z" fill="white"/>
</g>
<defs>
<clipPath id="clip0_187_1667">
<rect width="306" height="91" fill="white"/>
</clipPath>
</defs>
</svg>
