<svg width="30" height="26" viewBox="0 0 30 26" fill="none" xmlns="http://www.w3.org/2000/svg">
<path d="M9.43964 25.0945C20.7189 25.0945 26.8899 15.7475 26.8899 7.64428C26.8899 7.38151 26.884 7.1129 26.8724 6.85013C28.0728 5.98199 29.1088 4.90667 29.9316 3.67471C28.8136 4.17213 27.6265 4.49699 26.4111 4.6382C27.6909 3.87105 28.6492 2.66589 29.1082 1.24613C27.9042 1.95967 26.5875 2.46301 25.2146 2.73458C24.2895 1.75164 23.0664 1.10082 21.7343 0.882735C20.4023 0.664652 19.0355 0.891454 17.8453 1.52808C16.655 2.1647 15.7077 3.17568 15.1496 4.40472C14.5916 5.63375 14.454 7.01239 14.7581 8.32748C12.3202 8.20514 9.93516 7.57183 7.7577 6.46861C5.58023 5.36539 3.65891 3.81689 2.1183 1.92349C1.33527 3.27352 1.09567 4.87103 1.44817 6.39137C1.80068 7.91171 2.71885 9.24078 4.01608 10.1085C3.0422 10.0776 2.08965 9.81535 1.23714 9.34352V9.41943C1.23627 10.8362 1.72605 12.2095 2.62324 13.306C3.52042 14.4024 4.76963 15.1544 6.15852 15.4339C5.25638 15.6808 4.30954 15.7167 3.39127 15.539C3.78319 16.7575 4.54572 17.8231 5.57244 18.5873C6.59916 19.3515 7.83884 19.776 9.11848 19.8018C6.94604 21.5082 4.26244 22.4338 1.49991 22.4294C1.01 22.4287 0.52057 22.3987 0.0342407 22.3395C2.84067 24.14 6.10531 25.0963 9.43964 25.0945Z" fill="white"/>
</svg>
