<svg width="30" height="22" viewBox="0 0 30 22" fill="none" xmlns="http://www.w3.org/2000/svg">
<path d="M29.7022 4.96927C29.7022 4.96927 29.4102 2.90799 28.511 2.00289C27.3723 0.81167 26.0993 0.80583 25.5154 0.735758C21.3344 0.432113 15.0572 0.432114 15.0572 0.432114H15.0455C15.0455 0.432114 8.76822 0.432113 4.58726 0.735758C4.00333 0.80583 2.73036 0.81167 1.59169 2.00289C0.692433 2.90799 0.406306 4.96927 0.406306 4.96927C0.406306 4.96927 0.102661 7.39259 0.102661 9.81007V12.0757C0.102661 14.4932 0.400467 16.9165 0.400467 16.9165C0.400467 16.9165 0.692433 18.9778 1.58585 19.8829C2.72452 21.0741 4.21939 21.0333 4.88507 21.1617C7.27919 21.3894 15.0513 21.4595 15.0513 21.4595C15.0513 21.4595 21.3344 21.4478 25.5154 21.15C26.0993 21.08 27.3723 21.0741 28.511 19.8829C29.4102 18.9778 29.7022 16.9165 29.7022 16.9165C29.7022 16.9165 30 14.499 30 12.0757V9.81007C30 7.39259 29.7022 4.96927 29.7022 4.96927ZM11.9623 14.826V6.42326L20.0381 10.6393L11.9623 14.826Z" fill="white"/>
</svg>
