<svg width="211" height="64" viewBox="0 0 211 64" fill="none" xmlns="http://www.w3.org/2000/svg">
<g clip-path="url(#clip0_187_1750)">
<path d="M86.5508 56.1045C86.5508 55.953 86.6519 55.8508 86.8017 55.8508H88.6889C88.8387 55.8508 88.9398 55.953 88.9398 56.1045V61.156C88.9398 61.3075 88.8387 61.4097 88.6889 61.4097H86.8017C86.6519 61.4097 86.5508 61.3075 86.5508 61.156V56.1045ZM93.216 61.156V55.8015C93.216 54.2982 92.9502 53.5901 91.2801 53.5901H86.8204C86.6706 53.5901 86.5882 53.5068 86.5882 53.3553V51.6816C86.5882 51.5301 86.6706 51.4468 86.8204 51.4468H92.2986C94.3843 51.4468 95.6238 52.6131 95.6238 54.6542V61.156C95.6238 61.3075 95.5077 61.4097 95.3579 61.4097H93.4707C93.3209 61.4097 93.2198 61.3075 93.2198 61.156H93.216Z" fill="#2A7DE1"/>
<path d="M103.674 61.156V55.8015C103.674 54.2982 103.409 53.5901 101.739 53.5901H98.1812C98.0314 53.5901 97.9453 53.5068 97.9453 53.3553V51.6816C97.9453 51.5301 98.0277 51.4468 98.1812 51.4468H102.757C104.846 51.4468 106.082 52.6131 106.082 54.6542V61.156C106.082 61.3075 105.966 61.4097 105.816 61.4097H103.929C103.779 61.4097 103.678 61.3075 103.678 61.156H103.674Z" fill="#2A7DE1"/>
<path d="M109.744 61.1561V54.1317C109.744 53.7265 109.594 53.5902 109.227 53.5902H108.494C108.344 53.5902 108.243 53.488 108.243 53.3365V51.6968C108.243 51.5454 108.344 51.4431 108.494 51.4431H110.366C111.467 51.4431 112.137 52.049 112.137 53.1661V61.1561C112.137 61.3076 112.036 61.4099 111.886 61.4099H109.999C109.849 61.4099 109.748 61.3076 109.748 61.1561H109.744Z" fill="#2A7DE1"/>
<path d="M122.356 61.156V55.8016C122.356 54.2982 122.071 53.5901 120.416 53.5901H119.098V59.0127C119.098 60.9061 118.095 61.5271 116.477 61.5271C115.826 61.5271 114.942 61.4249 114.942 60.9705V59.6527C114.942 59.4482 115.058 59.2967 115.26 59.3157C115.459 59.3497 115.777 59.3838 115.96 59.3838C116.413 59.3838 116.713 59.149 116.713 58.5886V53.5901H115.511C115.361 53.5901 115.279 53.5068 115.279 53.3553V51.6816C115.279 51.5301 115.361 51.4468 115.511 51.4468H121.424C123.509 51.4468 124.749 52.6131 124.749 54.6542V61.156C124.749 61.3075 124.648 61.4097 124.498 61.4097H122.611C122.461 61.4097 122.36 61.3075 122.36 61.156H122.356Z" fill="#2A7DE1"/>
<path d="M136.491 61.179V55.8245C136.491 54.3212 136.225 53.613 134.555 53.613H130.998C130.848 53.613 130.762 53.5297 130.762 53.3783V51.7045C130.762 51.553 130.845 51.4697 130.998 51.4697H135.574C137.663 51.4697 138.899 52.636 138.899 54.6771V61.179C138.899 61.3304 138.783 61.4327 138.633 61.4327H136.746C136.596 61.4327 136.495 61.3304 136.495 61.179H136.491Z" fill="#2A7DE1"/>
<path d="M142.981 61.1789V54.1544C142.981 53.7492 142.831 53.6129 142.464 53.6129H141.73C141.58 53.6129 141.479 53.5107 141.479 53.3592V51.7195C141.479 51.5681 141.58 51.4658 141.73 51.4658H143.602C144.703 51.4658 145.373 52.0717 145.373 53.1888V61.1789C145.373 61.3303 145.272 61.4326 145.122 61.4326H143.235C143.085 61.4326 142.984 61.3303 142.984 61.1789H142.981Z" fill="#2A7DE1"/>
<path d="M154.772 61.2623L151.698 56.6841C150.863 57.3922 150.597 58.3389 150.597 59.3878C150.597 60.149 150.747 60.6034 150.915 61.16C150.964 61.3305 150.833 61.4289 150.679 61.4289H148.859C148.71 61.4289 148.642 61.3456 148.594 61.1752C148.391 60.4481 148.26 59.9596 148.26 59.0963C148.26 57.4415 148.762 55.8548 150.447 54.8059L148.391 51.7651C148.29 51.6136 148.358 51.4622 148.541 51.4622H150.597C150.732 51.4622 150.814 51.5114 150.896 51.6288L153.75 55.8851C154.686 55.2451 154.985 54.3818 154.985 53.3707C154.985 52.6966 154.851 52.2915 154.686 51.731C154.637 51.5606 154.768 51.4622 154.922 51.4622H156.742C156.891 51.4622 156.959 51.5455 157.007 51.7159C157.176 52.2725 157.326 52.8822 157.326 53.7077C157.326 55.2792 156.79 56.7485 155.004 57.7444L157.277 61.1222C157.378 61.2737 157.311 61.4251 157.127 61.4251H155.072C154.94 61.4251 154.854 61.3759 154.772 61.2547V61.2623Z" fill="#2A7DE1"/>
<path d="M164.265 56.1045C164.265 55.953 164.366 55.8508 164.516 55.8508H166.403C166.553 55.8508 166.654 55.953 166.654 56.1045V61.156C166.654 61.3075 166.553 61.4097 166.403 61.4097H164.516C164.366 61.4097 164.265 61.3075 164.265 61.156V56.1045ZM170.93 61.156V55.8015C170.93 54.2982 170.664 53.5901 168.994 53.5901H164.534C164.384 53.5901 164.302 53.5068 164.302 53.3553V51.6816C164.302 51.5301 164.384 51.4468 164.534 51.4468H170.012C172.098 51.4468 173.338 52.6131 173.338 54.6542V61.156C173.338 61.3075 173.222 61.4097 173.072 61.4097H171.185C171.035 61.4097 170.934 61.3075 170.934 61.156H170.93Z" fill="#2A7DE1"/>
<path d="M175.809 61.156V59.5164C175.809 59.3649 175.91 59.2626 176.06 59.2626H181.437C181.388 59.1945 181.37 59.0771 181.37 58.9256V55.8015C181.37 54.2982 181.104 53.5901 179.434 53.5901H176.393C176.243 53.5901 176.161 53.5068 176.161 53.3553V51.6816C176.161 51.5301 176.243 51.4468 176.393 51.4468H180.452C182.538 51.4468 183.777 52.6131 183.777 54.6542V58.9256C183.777 59.1642 183.894 59.2626 184.096 59.2626H184.429C184.579 59.2626 184.68 59.3649 184.68 59.5164V61.156C184.68 61.3075 184.579 61.4097 184.429 61.4097H176.064C175.914 61.4097 175.813 61.3075 175.813 61.156H175.809Z" fill="#2A7DE1"/>
<path d="M188.125 57.7102V54.1317C188.125 53.7265 187.975 53.5902 187.608 53.5902H186.855C186.706 53.5902 186.604 53.488 186.604 53.3365V51.6968C186.604 51.5454 186.706 51.4431 186.855 51.4431H188.761C189.862 51.4431 190.465 52.049 190.465 53.1661V57.7102C190.465 57.8617 190.364 57.9639 190.214 57.9639H188.376C188.226 57.9639 188.125 57.8617 188.125 57.7102Z" fill="#2A7DE1"/>
<path d="M193.704 56.6613V51.6968C193.704 51.5454 193.805 51.4431 193.955 51.4431H195.842C195.992 51.4431 196.093 51.5454 196.093 51.6968V54.9383H196.595C197.565 54.9383 197.864 54.4801 197.864 53.488V51.6817C197.864 51.5302 197.947 51.4469 198.096 51.4469H199.95C200.1 51.4469 200.186 51.5302 200.186 51.6817V53.9272C200.186 55.8888 198.916 57.0021 197.01 57.0021H196.142C196.374 58.638 197.276 59.2325 198.995 59.2325C201.017 59.2325 201.886 58.4221 201.886 56.0743V51.7006C201.886 51.5491 201.987 51.4469 202.137 51.4469H204.024C204.174 51.4469 204.275 51.5491 204.275 51.7006V56.6651C204.275 59.9936 202.155 61.5462 198.995 61.5462C195.835 61.5462 193.7 59.9936 193.7 56.6651L193.704 56.6613Z" fill="#2A7DE1"/>
<path d="M208.375 57.7102V54.1317C208.375 53.7265 208.225 53.5902 207.855 53.5902H207.102C206.952 53.5902 206.851 53.488 206.851 53.3365V51.6968C206.851 51.5454 206.952 51.4431 207.102 51.4431H209.008C210.109 51.4431 210.712 52.049 210.712 53.1661V57.7102C210.712 57.8617 210.611 57.9639 210.461 57.9639H208.622C208.472 57.9639 208.371 57.8617 208.371 57.7102H208.375Z" fill="#2A7DE1"/>
<path d="M86.5843 8.25513L93.3769 15.1432L100.166 8.25513V22.1828H97.0952V15.431L93.3731 19.1951L89.6511 15.431V22.1828H86.5806V8.25513H86.5843Z" fill="#003DA6"/>
<path d="M109.269 8.25513L115.983 22.1866H112.759L111.781 20.0509H106.756L105.779 22.1866H102.559L109.273 8.25513H109.269ZM110.553 17.5289L109.269 14.6585L107.984 17.5289H110.553Z" fill="#003DA6"/>
<path d="M120.592 14.988V22.1866H117.521V8.25513L126.115 15.609V8.41038H129.186V22.3381L120.592 14.988Z" fill="#003DA6"/>
<path d="M133.039 8.4104H136.11V13.8027H141.558V8.4104H144.628V22.1828H141.558V16.7905H136.11V22.1828H133.039V8.4104Z" fill="#003DA6"/>
<path d="M154.061 8.25513L160.775 22.1866H157.551L156.573 20.0509H151.548L150.571 22.1866H147.351L154.065 8.25513H154.061ZM155.345 17.5289L154.061 14.6585L152.776 17.5289H155.345Z" fill="#003DA6"/>
<path d="M164.002 11.4739H160.741V8.4104H170.353V11.4739H167.073V22.1828H164.002V11.4739Z" fill="#003DA6"/>
<path d="M176.753 11.4739H173.491V8.4104H183.103V11.4739H179.823V22.1828H176.753V11.4739Z" fill="#003DA6"/>
<path d="M190.087 8.25513L196.801 22.1866H193.577L192.599 20.0509H187.574L186.597 22.1866H183.376L190.09 8.25513H190.087ZM191.371 17.5289L190.087 14.6585L188.802 17.5289H191.371Z" fill="#003DA6"/>
<path d="M202.406 14.988V22.1866H199.336V8.25513L207.93 15.609V8.41038H211V22.3381L202.406 14.988Z" fill="#003DA6"/>
<path d="M86.5508 28.4536H91.3288C95.1669 28.4536 98.2524 31.536 98.2524 35.3417C98.2524 39.1474 95.1632 42.2298 91.3288 42.2298H86.5508V28.4574V28.4536ZM91.3288 39.3936C93.6092 39.3936 95.1669 37.5494 95.1669 35.3379C95.1669 33.1265 93.6129 31.2823 91.3288 31.2823H89.6213V39.3898H91.3288V39.3936Z" fill="#003DA6"/>
<path d="M105.101 28.2983L111.815 42.2298H108.591L107.614 40.0941H102.589L101.611 42.2298H98.3911L105.105 28.2983H105.101ZM106.386 37.5721L105.101 34.7017L103.817 37.5721H106.386Z" fill="#003DA6"/>
<path d="M114.331 36.4475L109.284 28.4536H112.871L115.863 33.3423L118.855 28.4536H122.442L117.398 36.4475V42.2298H114.328V36.4475H114.331Z" fill="#003DA6"/>
<path d="M140.682 35.3417C140.682 31.4603 143.808 28.2983 147.646 28.2983C149.987 28.2983 152.076 29.4836 153.346 31.2861L151.024 33.206C150.331 32.0813 149.107 31.2861 147.646 31.2861C145.441 31.2861 143.771 33.1302 143.771 35.3417C143.771 37.5532 145.441 39.3973 147.646 39.3973C149.103 39.3973 150.331 38.6021 151.024 37.4774L153.346 39.3973C152.08 41.2036 149.987 42.3851 147.646 42.3851C143.808 42.3851 140.682 39.2231 140.682 35.3417Z" fill="#003DA6"/>
<path d="M155.877 28.4536H158.947V33.846H164.396V28.4536H167.466V42.2261H164.396V36.8337H158.947V42.2261H155.877V28.4536Z" fill="#003DA6"/>
<path d="M169.99 35.3417C169.99 31.4603 173.116 28.2983 176.955 28.2983C180.793 28.2983 183.919 31.4603 183.919 35.3417C183.919 39.2231 180.793 42.3851 176.955 42.3851C173.116 42.3851 169.99 39.2231 169.99 35.3417ZM180.826 35.3417C180.826 33.1302 179.156 31.2861 176.951 31.2861C174.745 31.2861 173.075 33.1302 173.075 35.3417C173.075 37.5532 174.745 39.3973 176.951 39.3973C179.156 39.3973 180.826 37.5532 180.826 35.3417Z" fill="#003DA6"/>
<path d="M186.181 35.3417C186.181 31.4603 189.308 28.2983 193.146 28.2983C196.984 28.2983 200.111 31.4603 200.111 35.3417C200.111 39.2231 196.984 42.3851 193.146 42.3851C189.308 42.3851 186.181 39.2231 186.181 35.3417ZM197.018 35.3417C197.018 33.1302 195.348 31.2861 193.142 31.2861C190.937 31.2861 189.267 33.1302 189.267 35.3417C189.267 37.5532 190.937 39.3973 193.142 39.3973C195.348 39.3973 197.018 37.5532 197.018 35.3417Z" fill="#003DA6"/>
<path d="M202.635 28.4536H205.705V39.1436H211V42.2261H202.635V28.4536Z" fill="#003DA6"/>
<path d="M134.908 42.2868C134.425 42.3777 133.915 42.4269 133.387 42.4307C131.268 42.4534 128.961 41.8513 127.366 40.863L127.239 40.7834L128.954 38.235L129.066 38.2993C130.377 39.0567 131.991 39.4808 133.488 39.4657C133.777 39.4657 134.043 39.4391 134.286 39.3937C135.17 39.2309 135.671 38.8105 135.705 38.2085C135.739 37.5609 135.451 37.2656 133.765 36.9058L132.103 36.5499C129.163 35.9213 127.785 34.5921 127.763 32.3617C127.741 30.4305 129.354 28.8287 131.777 28.3742C132.197 28.2947 132.631 28.2531 133.073 28.2493C134.941 28.2303 136.903 28.7491 138.454 29.6731L138.581 29.7488L136.975 32.3011L136.855 32.233C135.664 31.5362 134.526 31.1992 133.38 31.2067C133.08 31.2067 132.799 31.2332 132.549 31.2825C131.676 31.4453 131.182 31.8581 131.189 32.4223C131.2 33.0698 131.687 33.4144 132.99 33.6909L134.818 34.0771C137.705 34.6868 139 35.9591 139.027 38.1933C139.049 40.2116 137.435 41.821 134.911 42.2906L134.908 42.2868Z" fill="#003DA6"/>
<path d="M29.2187 9.42142C25.5341 6.32386 20.6138 4.25629 15.1355 3.62769L9.44385 48.0615C14.9333 45.3767 23.7704 43.5893 30.1698 48.0956C25.081 42.9835 20.7823 37.1178 21.2466 28.3514C21.651 20.759 25.8598 15.5333 29.2149 9.42142H29.2187Z" fill="#2A7DE1"/>
<path d="M28.1813 51.1326C19.7636 45.051 7.97583 51.5605 5.74035 53.1623L11.2298 10.2924C9.85932 10.0614 8.41394 9.87582 6.88617 9.74707L0 64C0 64 0.66278 63.4054 1.93592 62.4588C15.2177 52.3292 28.1775 51.1326 28.1775 51.1326H28.1813Z" fill="#003DA6"/>
<path d="M33.9027 23.5573C33.9027 23.5573 32.9217 28.0181 34.8726 32.9144C36.3329 36.5762 39.3286 41.0483 42.3691 41.4573C44.1665 41.6959 45.668 39.7646 46.0799 39.1815C52.9511 29.3548 46.6678 19.4032 46.6678 19.4032C44.9116 22.0691 42.268 25.072 39.7704 22.213C37.284 19.3691 40.6916 16.1125 40.6242 11.1064C40.553 5.75953 36.0409 0.00366211 36.0409 0.00366211C34.8164 10.6861 25.1181 18.4527 24.5602 28.9004C24.1333 36.9208 28.0613 41.1771 32.5697 45.3955C31.3003 42.7562 27.1327 32.5016 33.9065 23.5573H33.9027Z" fill="#F5A800"/>
<path d="M44.4959 46.7134C44.4398 46.7589 44.3873 46.8005 44.3349 46.8422C51.311 43.5969 59.1295 46.278 62.8478 48.0577L57.1562 3.62769C51.8726 4.23735 47.3043 6.05878 43.6871 8.96702C44.5783 16.2262 41.2195 17.4721 42.4627 18.8845C43.6047 20.1796 47.529 12.8181 47.529 12.8181C47.529 12.8181 52.3033 19.6608 52.7189 28.234C53.0185 34.4368 51.3035 41.3438 44.4922 46.7134H44.4959Z" fill="#2A7DE1"/>
<path d="M44.1104 51.1324C52.528 45.0509 64.3158 51.5603 66.5513 53.1621L61.0618 10.2885C62.4323 10.0575 63.8777 9.87191 65.4054 9.74316L72.2916 63.9961C72.2916 63.9961 71.6288 63.4015 70.3557 62.4548C57.0739 52.3253 44.1141 51.1286 44.1141 51.1286L44.1104 51.1324Z" fill="#003DA6"/>
</g>
<defs>
<clipPath id="clip0_187_1750">
<rect width="211" height="64" fill="white"/>
</clipPath>
</defs>
</svg>
